<!DOCTYPE svg PUBLIC "-//W3C//DTD SVG 1.1//EN" "http://www.w3.org/Graphics/SVG/1.1/DTD/svg11.dtd">
<!-- Uploaded to: SVG Repo, www.svgrepo.com, Transformed by: SVG Repo Mixer Tools -->
<svg width="800px" height="800px" viewBox="0 0 64 64" xmlns="http://www.w3.org/2000/svg" xmlns:xlink="http://www.w3.org/1999/xlink" aria-hidden="true" role="img" class="iconify iconify--emojione-monotone" preserveAspectRatio="xMidYMid meet" fill="#000000">
<g id="SVGRepo_bgCarrier" stroke-width="0"/>
<g id="SVGRepo_tracerCarrier" stroke-linecap="round" stroke-linejoin="round"/>
<g id="SVGRepo_iconCarrier">
<path d="M35 27.869A7.994 7.994 0 0 1 28 32h14a7.994 7.994 0 0 1-7-4.131" fill="#ffffff"/>
<circle cx="28" cy="24" r="3" fill="#ffffff"/>
<circle cx="42" cy="24" r="3" fill="#ffffff"/>
<path d="M32 2C15.432 2 2 15.432 2 32s13.432 30 30 30s30-13.432 30-30S48.568 2 32 2m14 30c1.1 0 2 .9 2 2v12c0 1.1-.9 2-2 2H23c-1.1 0-2-.9-2-2v-.5L16 48V32l5 2.5V34c0-1.1.9-2 2-2h5a8 8 0 0 1 0-16a7.994 7.994 0 0 1 7 4.131A7.994 7.994 0 0 1 42 16a8 8 0 0 1 0 16h4" fill="#ffffff"/>
</g>
</svg>