<!DOCTYPE svg PUBLIC "-//W3C//DTD SVG 1.1//EN" "http://www.w3.org/Graphics/SVG/1.1/DTD/svg11.dtd">
<!-- Uploaded to: SVG Repo, www.svgrepo.com, Transformed by: SVG Repo Mixer Tools -->
<svg fill="#ffffff" height="800px" width="800px" version="1.1" id="Capa_1" xmlns="http://www.w3.org/2000/svg" xmlns:xlink="http://www.w3.org/1999/xlink" viewBox="0 0 487.079 487.079" xml:space="preserve" stroke="#ffffff">
<g id="SVGRepo_bgCarrier" stroke-width="0"/>
<g id="SVGRepo_tracerCarrier" stroke-linecap="round" stroke-linejoin="round"/>
<g id="SVGRepo_iconCarrier"> <g> <polygon points="360.202,284.467 290.501,202.613 126.875,202.613 196.576,284.467 "/> <path d="M399.81,3.723H113.652c-8.975,0-16.237,7.271-16.237,16.237v142.063c0,8.967,7.263,16.236,16.237,16.236H399.81 c48.121,0,87.27-39.147,87.27-87.267C487.079,42.871,447.931,3.723,399.81,3.723z M399.81,145.788h-10.147v-35.175 c0-8.967-7.264-16.237-16.237-16.237s-16.235,7.27-16.235,16.237v35.175h-48.709v-35.175c0-8.967-7.262-16.237-16.233-16.237 c-8.976,0-16.236,7.27-16.236,16.237v35.175h-48.708v-35.175c0-8.967-7.264-16.237-16.235-16.237 c-8.976,0-16.237,7.27-16.237,16.237v35.175h-64.944V64.069V36.196H399.81c30.22,0,54.795,24.583,54.795,54.796 C454.604,121.204,430.029,145.788,399.81,145.788z"/> <path d="M373.426,308.82H87.269C39.146,308.82,0,347.967,0,396.089c0,48.121,39.146,87.268,87.269,87.268h286.157 c8.974,0,16.237-7.27,16.237-16.236V325.057C389.663,316.091,382.399,308.82,373.426,308.82z M357.19,423.011v27.874h-64.942 V415.71c0-8.966-7.263-16.236-16.236-16.236c-8.974,0-16.237,7.27-16.237,16.236v35.175h-48.706V415.71 c0-8.966-7.263-16.236-16.237-16.236c-8.974,0-16.236,7.27-16.236,16.236v35.175h-48.708V415.71 c0-8.966-7.262-16.236-16.234-16.236c-8.975,0-16.237,7.27-16.237,16.236v35.175H87.269c-30.22,0-54.795-24.585-54.795-54.796 c0-30.213,24.575-54.796,54.795-54.796H357.19V423.011z"/> </g> </g>
</svg>